<?xml version="1.0" encoding="utf-8"?>
<!-- Generator: Adobe Illustrator 27.4.0, SVG Export Plug-In . SVG Version: 6.00 Build 0)  -->
<svg version="1.1" id="Слой_1" xmlns="http://www.w3.org/2000/svg" xmlns:xlink="http://www.w3.org/1999/xlink" x="0px" y="0px"
	 viewBox="0 0 300 300" style="enable-background:new 0 0 300 300;" xml:space="preserve">
<style type="text/css">
	.st0{fill:#E90027;stroke:#000000;stroke-miterlimit:10;}
	.st1{fill:#F2FF3F;}
	.st2{stroke:#000000;stroke-miterlimit:10;}
	.st3{font-family:'ArialMT';}
	.st4{font-size:18px;}
</style>
<rect x="23.5" y="23.5" class="st0" width="253.1" height="253.1"/>
<path class="st1" d="M155.9,182.1h-1.6c-14.6,0-26.5-11.9-26.5-26.5v-57c0-14.6,11.9-26.5,26.5-26.5h1.6c14.6,0,26.5,11.9,26.5,26.5
	v57C182.4,170.2,170.5,182.1,155.9,182.1z"/>
<path class="st1" d="M153.1,72.1L153.1,72.1c-10.7,0-19.4-8.7-19.4-19.4l0,0c0-10.7,8.7-19.4,19.4-19.4l0,0
	c10.7,0,19.4,8.7,19.4,19.4l0,0C172.4,63.5,163.8,72.1,153.1,72.1z"/>
<path class="st1" d="M106.2,154L106.2,154c-5-1.4-7.9-6.7-6.5-11.7l15.4-53.8c1.4-5,6.7-7.9,11.7-6.5l0,0c5,1.4,7.9,6.7,6.5,11.7
	l-15.4,53.8C116.5,152.5,111.2,155.4,106.2,154z"/>
<path class="st1" d="M131.7,234L131.7,234c-5.2-0.3-9.1-4.8-8.8-10.1l2.9-43.5c0.3-5.2,4.8-9.1,10.1-8.8l0,0
	c5.2,0.3,9.1,4.8,8.8,10.1l-2.9,43.5C141.4,230.4,136.9,234.4,131.7,234z"/>
<path class="st1" d="M169.3,237.3L169.3,237.3c-5.2,0-9.4-4.2-9.4-9.5v-44.4c0-5.2,4.2-9.4,9.5-9.4l0,0c5.2,0,9.4,4.2,9.4,9.5v44.4
	C178.8,233,174.6,237.3,169.3,237.3z"/>
<path class="st1" d="M215.6,146.9L215.6,146.9c-4.4,2.7-10.3,1.3-13-3.1l-30.2-49.1c-2.7-4.4-1.3-10.3,3.1-13l0,0
	c4.4-2.7,10.3-1.3,13,3.1l30.2,49.1C221.4,138.4,220,144.2,215.6,146.9z"/>
<path class="st2" d="M154.7,83.4L154.7,83.4c-3.1-2.9-6.3-5.8-9.4-8.7h19.6C161.5,77.6,158.1,80.5,154.7,83.4z"/>
<path class="st2" d="M163.3,133.1c-1,0.9-2.5,2.4-4.3,4.3c-3,3.2-3.9,4.7-5.3,4.6c-0.8-0.1-1.3-0.7-3.4-3.7
	c-1.3-1.8-2.4-3.6-3.5-5.1c2.6-16.6,5.2-33.1,7.9-49.7l0,0C157.6,100,160.4,116.6,163.3,133.1z"/>
<text transform="matrix(0.8423 0 0 1 23.5 262.2744)" class="st1 st3 st4">Кадровое агенство «Золотой шанс»</text>
</svg>
